<?xml version="1.0" encoding="utf-8"?>
<!-- Generator: Adobe Illustrator 24.3.0, SVG Export Plug-In . SVG Version: 6.00 Build 0)  -->
<svg version="1.1" id="圖層_1" xmlns="http://www.w3.org/2000/svg" xmlns:xlink="http://www.w3.org/1999/xlink" x="0px" y="0px"
	 viewBox="0 0 2880 1400" style="enable-background:new 0 0 2880 1400;" xml:space="preserve">
<style type="text/css">
	.st0{fill:none;stroke:#FFFFFF;stroke-miterlimit:10;}
	.st1{opacity:0.5;fill:#FFFFFF;}
	.st2{opacity:0.2;fill:#FFFFFF;}
</style>
<line class="st0" x1="750.1" y1="-0.2" x2="750.1" y2="1399.8"/>
<line class="st0" x1="2557.8" y1="-0.2" x2="2557.8" y2="1399.8"/>
<line class="st0" x1="2975.7" y1="1227.5" x2="0" y2="1227.5"/>
<line class="st0" x1="2975.7" y1="985.1" x2="0" y2="985.1"/>
<line class="st0" x1="2975.7" y1="209.7" x2="0" y2="209.7"/>
<polygon class="st1" points="2124.2,-3521.8 1977.4,-3448.5 2062.6,-3541.9 "/>
<polygon class="st1" points="-163.2,-3229.1 -84.8,-3064.3 -182.9,-3122.5 "/>
<polygon class="st1" points="2681.7,-2767.7 2509.6,-2828.8 2620.2,-2857 "/>
<polygon class="st1" points="198.4,-1894 351.4,-1805.4 320.3,-1886 "/>
<polygon class="st1" points="1533.5,-2467.1 1650.5,-2462.7 1607.3,-2500.2 "/>
<polygon class="st1" points="694.2,-2859 602.3,-2786.2 659.5,-2785.8 "/>
<polygon class="st2" points="2521.9,-233.3 2.3,1399.6 1458.4,1400.4 "/>
</svg>
